<svg width="123" height="56" viewBox="0 0 123 56" fill="none" xmlns="http://www.w3.org/2000/svg">
<g clip-path="url(#clip0_790_286)">
<path d="M123 56H0V0.000331879H123V56Z" fill="#ED2023"/>
<path d="M85.896 38.5261H84.5904V35.7748H85.9591C87.2857 35.7748 87.9385 36.3039 87.9385 37.161C87.9385 38.0816 87.2962 38.5261 85.896 38.5261ZM84.5904 32.5262C84.959 32.4837 85.2959 32.4626 85.6327 32.4626C87.191 32.4626 87.6121 33.0235 87.6121 33.7853C87.6121 34.5473 87.0436 35.0869 85.9065 35.0869H84.5904V32.5262ZM87.1278 35.3938C87.9174 35.1292 88.3596 34.4415 88.3596 33.7007C88.3596 32.5155 87.5805 31.7747 85.6223 31.7747C85.0326 31.7747 84.4115 31.8277 83.8535 31.9228V39.2139H85.9697C87.8753 39.2139 88.6965 38.452 88.6965 37.1292C88.6965 36.2404 88.0965 35.5737 87.1278 35.3938ZM66.3948 27.6391C66.4881 27.1861 66.5503 26.6546 66.5969 26.1859C66.2238 26.3265 65.7574 26.4202 65.2599 26.4202C64.436 26.4202 63.9384 26.0297 63.9384 25.014V21.1855H66.4881C66.5659 20.7324 66.6126 20.2479 66.6435 19.7166H63.9384V16.7633C63.4098 16.7633 62.7569 16.8414 62.2282 17.0132V25.217C62.2282 27.1235 63.2854 27.8891 64.949 27.8891C65.431 27.8891 65.9285 27.8266 66.3948 27.6391ZM78.8839 33.9229V39.2139H79.6209V34.3991C79.9684 34.3251 80.3473 34.2826 80.6528 34.2826C80.9475 34.2826 81.2213 34.2933 81.4635 34.3251C81.5056 34.1875 81.5371 33.9123 81.5371 33.6901C81.3054 33.6583 80.9791 33.6478 80.6316 33.6478C80.0631 33.6478 79.3472 33.7642 78.8839 33.9229ZM76.9887 36.0711H73.7881C73.8723 34.9705 74.3882 34.2721 75.4411 34.2721C76.4834 34.2721 76.9887 34.9811 76.9887 36.0287V36.0711ZM75.4726 33.6266C73.746 33.6266 73.0406 34.8753 73.0406 36.452C73.0406 38.2722 73.9671 39.3409 75.7253 39.3409C76.3255 39.3409 76.873 39.2456 77.3994 38.9388C77.452 38.706 77.4941 38.4203 77.5153 38.2297C76.9467 38.5579 76.3149 38.6847 75.7464 38.6847C74.5461 38.6847 73.8829 38.0075 73.7881 36.7377H77.6837C77.7152 36.5261 77.7258 36.3039 77.7258 36.0815C77.7258 34.7166 77.052 33.6266 75.4726 33.6266ZM69.7766 33.6266C69.1344 33.6266 68.5131 33.796 67.9341 34.071C67.5656 33.7642 67.0181 33.6266 66.2811 33.6266C65.6073 33.6266 64.9124 33.7324 64.207 33.9229V39.2139H64.944V34.4309C65.3547 34.3356 65.8073 34.2826 66.2074 34.2826C67.334 34.2826 67.7551 34.7059 67.7551 35.7325V39.2139H68.4921V35.6372C68.4921 35.2139 68.4289 34.8647 68.3131 34.5896C68.7553 34.3991 69.2291 34.2826 69.7135 34.2826C70.7978 34.2826 71.2611 34.7906 71.2611 35.7535V39.2139H71.9981V35.6372C71.9981 34.3567 71.3664 33.6266 69.7766 33.6266ZM72.7228 25.9202C72.272 26.2641 71.7278 26.4828 71.0593 26.4828C69.5358 26.4828 68.8983 25.3577 68.8983 23.7638C68.8983 22.0138 69.7223 20.9199 71.4947 20.9199C71.9766 20.9199 72.3653 20.9512 72.7228 21.0135V25.9202ZM74.4331 19.8885C73.5313 19.576 72.6141 19.451 71.4947 19.451C68.6184 19.451 67.1571 21.0135 67.1571 23.7638C67.1571 26.389 68.5252 27.8891 70.5774 27.8891C71.6656 27.8891 72.3342 27.4516 72.7695 26.7641L72.8629 27.7016H74.4331V19.8885ZM79.4085 19.451C78.5844 19.451 77.3874 19.6229 76.2992 19.8885V27.7016H78.0092V21.0449C78.4756 20.9667 78.9576 20.9199 79.3619 20.9199C81.0719 20.9199 81.4762 21.5137 81.4762 22.7481V27.7016H83.1864V22.4513C83.1864 20.5604 82.2692 19.451 79.4085 19.451ZM104.953 19.451C103.99 19.451 102.761 19.6385 102.031 19.8885V27.7016H103.741V21.0135C104.161 20.9512 104.58 20.9199 105 20.9199C105.482 20.9199 105.886 20.9354 106.29 20.9824C106.384 20.6543 106.446 20.0292 106.446 19.5135C106.073 19.4665 105.482 19.451 104.953 19.451ZM105.416 33.7536H104.521L102.257 36.2192V36.2934L104.668 39.2139H105.584L103.121 36.251L105.416 33.7536ZM94.9718 22.92C95.1117 21.5917 95.7491 20.8886 96.9618 20.8886C98.1435 20.8886 98.8274 21.6386 98.8274 22.92H94.9718ZM97.055 19.451C94.3345 19.451 93.2617 21.2949 93.2617 23.6231C93.2617 26.2952 94.6453 27.8891 97.506 27.8891C98.4232 27.8891 99.2473 27.7485 100.025 27.389C100.134 26.8734 100.227 26.2796 100.289 25.8265C99.4339 26.217 98.4855 26.4202 97.5526 26.4202C96.029 26.4202 95.2206 25.7483 95.0029 24.3576H100.46C100.522 23.9044 100.553 23.5139 100.553 23.0295C100.553 21.0605 99.496 19.451 97.055 19.451ZM97.4986 33.6266C96.9089 33.6266 96.2246 33.7324 95.5192 33.9229V39.2139H96.2561V34.4309C96.6563 34.3356 97.0985 34.2826 97.4774 34.2826C98.7724 34.2826 99.141 34.7906 99.141 35.7748V39.2139H99.878V35.6372C99.878 34.3567 99.2778 33.6266 97.4986 33.6266ZM93.3501 38.1874C93.0026 38.5261 92.5605 38.7272 92.013 38.7272C90.8654 38.7272 90.2758 37.8911 90.2758 36.5261C90.2758 35.1081 90.918 34.2826 92.3288 34.2826C92.708 34.2826 93.0343 34.3251 93.3501 34.4097V38.1874ZM89.5283 36.5261C89.5283 38.3357 90.4548 39.3409 91.9498 39.3409C92.5394 39.3409 93.0238 39.1187 93.3818 38.8012L93.4027 39.2139H94.0871V33.9229C93.5291 33.7112 92.9816 33.6266 92.3288 33.6266C90.4443 33.6266 89.5283 34.6637 89.5283 36.5261ZM101.247 39.2139H101.984V31.7853C101.742 31.7853 101.489 31.817 101.247 31.8911V39.2139ZM50.0777 33.6266C49.488 33.6266 48.8036 33.7324 48.0983 33.9229V39.2139H48.8353V34.4309C49.2354 34.3356 49.6776 34.2826 50.0566 34.2826C51.3516 34.2826 51.7201 34.7906 51.7201 35.7748V39.2139H52.4571V35.6372C52.4571 34.3567 51.857 33.6266 50.0777 33.6266ZM62.0381 38.1029C61.638 38.4838 61.1326 38.706 60.543 38.706C59.5954 38.706 59.1532 38.2404 59.1532 37.1399V33.7536H58.4163V37.288C58.4163 38.6954 59.0901 39.3409 60.3113 39.3409C61.1116 39.3409 61.6486 39.1398 62.059 38.7377L62.0802 39.2139H62.7749V33.7536H62.0381V38.1029ZM28.418 19.654C28.3933 19.0836 28.2345 18.5177 27.9406 18.0062L25.349 13.4943C25.1513 13.1503 25.0148 12.7816 24.9389 12.4034L24.8306 12.5921C24.1892 13.7088 24.1891 15.0846 24.8306 16.2013L26.904 19.8109C27.5455 20.9277 27.5455 22.3036 26.904 23.4203L26.7956 23.6089C26.7199 23.2307 26.5833 22.8621 26.3857 22.5181L24.4876 19.2136L23.2755 17.1038C23.0779 16.7597 22.9415 16.391 22.8655 16.013L22.7573 16.2015C22.118 17.3145 22.1159 18.6847 22.751 19.7994L22.7508 19.7996L24.8306 23.4203C25.4722 24.5371 25.4722 25.913 24.8306 27.0297L24.7222 27.2184C24.6464 26.8402 24.5099 26.4715 24.3123 26.1275L21.7206 21.6156C21.373 21.0104 21.2142 20.3293 21.2431 19.6545C18.4687 20.3831 16.5537 21.93 16.5537 23.7212C16.5537 26.2129 20.2594 28.233 24.8306 28.233C29.4018 28.233 33.1075 26.2129 33.1075 23.7212C33.1075 21.9299 31.1926 20.3825 28.418 19.654ZM88.7993 20.9199C89.2503 20.9199 89.7165 20.9824 90.1674 21.0761V25.8889C89.701 26.2484 89.1413 26.4828 88.4572 26.4828C86.9337 26.4828 86.2963 25.3577 86.2963 23.7638C86.2963 21.9824 87.1047 20.9199 88.7993 20.9199ZM87.9753 27.8891C89.0946 27.8891 89.7632 27.436 90.1985 26.7015L90.2919 27.7016H91.8621V16.7633C91.3024 16.7633 90.6961 16.8102 90.1674 16.9977V19.576C89.7632 19.4979 89.3434 19.451 88.8925 19.451C86.0164 19.451 84.555 21.0135 84.555 23.7638C84.555 26.389 85.9232 27.8891 87.9753 27.8891ZM39.373 26.389C38.5178 26.389 37.3984 26.1859 36.5278 25.7797C36.3568 26.2796 36.2636 26.7171 36.2325 27.3579C37.1031 27.7641 38.1447 27.9517 39.4196 27.9517C42.0625 27.9517 43.4152 26.7171 43.4152 24.9201C43.4152 23.4045 42.5912 22.5138 40.6167 21.6699L39.7771 21.3105C38.6888 20.8417 38.0825 20.373 38.0825 19.5604C38.0825 18.7323 38.7043 18.201 40.057 18.201C40.7722 18.201 41.7672 18.3415 42.6068 18.6541C42.7622 18.201 42.871 17.7165 42.9176 17.0915C42.0315 16.7789 41.0832 16.6382 40.0725 16.6382C37.5539 16.6382 36.3257 17.779 36.3257 19.5604C36.3257 21.2167 37.3207 22.0449 38.7822 22.6857L39.575 23.0295C41.0365 23.67 41.6272 24.0919 41.6272 24.9983C41.6272 25.9202 40.8189 26.389 39.373 26.389ZM44.4238 38.6743C43.2235 38.6743 42.5918 37.8807 42.5918 36.4626C42.5918 35.161 43.192 34.2933 44.4238 34.2933C45.6136 34.2933 46.2452 35.0976 46.2452 36.4837C46.2452 37.8171 45.6451 38.6743 44.4238 38.6743ZM44.4449 33.6266C42.8129 33.6266 41.8443 34.7271 41.8443 36.5155C41.8443 38.1451 42.6972 39.3409 44.3817 39.3409C46.0452 39.3409 46.9928 38.2404 46.9928 36.4308C46.9928 34.8224 46.1504 33.6266 44.4449 33.6266ZM39.7174 32.452C40.2334 32.452 40.7387 32.5472 41.1598 32.706C41.2229 32.5155 41.2756 32.2509 41.2861 31.9969C40.8334 31.817 40.2649 31.7429 39.7174 31.7429C37.5064 31.7429 36.2325 33.1399 36.2325 35.5525C36.2325 37.8489 37.4433 39.3621 39.6437 39.3621C40.2228 39.3621 40.6965 39.2881 41.1072 39.1398C41.1704 38.8646 41.2125 38.6107 41.2229 38.3568C40.8018 38.5472 40.2438 38.653 39.7384 38.653C38.075 38.653 37.0011 37.4996 37.0011 35.5208C37.0011 33.5101 38.075 32.452 39.7174 32.452ZM58.8075 27.7016H60.5176V22.4513C60.5176 20.5604 59.6004 19.451 56.7397 19.451C55.9157 19.451 54.7186 19.6229 53.6303 19.8885V27.7016H55.3405V21.0449C55.8069 20.9667 56.2889 20.9199 56.6931 20.9199C58.4033 20.9199 58.8075 21.5137 58.8075 22.7481V27.7016ZM55.9315 36.2086L55.4367 36.0393C54.7839 35.8171 54.3733 35.6372 54.3733 35.0446C54.3733 34.526 54.7839 34.2616 55.5946 34.2616C56.1105 34.2616 56.6474 34.3461 57.1318 34.526C57.195 34.3144 57.2265 34.0817 57.2371 33.9018C56.7528 33.7112 56.1843 33.6266 55.5735 33.6266C54.3839 33.6266 53.6679 34.124 53.6679 35.0657C53.6679 35.9124 54.1838 36.3885 55.1208 36.6742L55.6052 36.8223C56.1105 36.9812 56.6896 37.2033 56.6896 37.8382C56.6896 38.4414 56.1947 38.6954 55.384 38.6954C54.8471 38.6954 54.1628 38.5684 53.6679 38.2828C53.6153 38.4308 53.5731 38.6319 53.5626 38.9282C54.0574 39.2139 54.6681 39.3409 55.4051 39.3409C56.6685 39.3409 57.4055 38.7801 57.4055 37.8171C57.4055 36.8965 56.7633 36.4943 55.9315 36.2086ZM46.2296 23.7638C46.2296 22.0138 47.0535 20.9199 48.8259 20.9199C49.3079 20.9199 49.6965 20.9512 50.0541 21.0135V25.9202C49.6033 26.2641 49.0591 26.4828 48.3906 26.4828C46.867 26.4828 46.2296 25.3577 46.2296 23.7638ZM50.1007 26.7641L50.1941 27.7016H51.7643V19.8885C50.8626 19.576 49.9453 19.451 48.8259 19.451C45.9497 19.451 44.4883 21.0135 44.4883 23.7638C44.4883 26.389 45.8565 27.8891 47.9086 27.8891C48.9968 27.8891 49.6655 27.4516 50.1007 26.7641Z" fill="white"/>
</g>
<defs>
<clipPath id="clip0_790_286">
<rect width="123" height="56" fill="white"/>
</clipPath>
</defs>
</svg>
